M48
METRIC,TZ
T1C1.000
T2C1.300
%
G90
G05
T1
X41135Y-30500
X43675Y-30500
X46215Y-30500
X48755Y-30500
X51295Y-30500
X53835Y-30500
X56375Y-30500
X58915Y-30500
X61455Y-30500
X63995Y-30500
X66535Y-30500
X69075Y-30500
X71615Y-30500
T2
X33500Y-38750
X33500Y-43750
X33500Y-54250
X33500Y-59250
X43500Y-41250
X43500Y-56750
X51125Y-38750
X51125Y-43750
X51125Y-54250
X51125Y-59250
X61125Y-41250
X61125Y-56750
X68750Y-38750
X68750Y-43750
X68750Y-54250
X68750Y-59250
X78750Y-41250
X78750Y-56750
M30
