%TF.GenerationSoftware,KiCad,Pcbnew,8.0.7*%
%TF.CreationDate,2025-03-30T18:54:05-04:00*%
%TF.ProjectId,WG P802 Adjustment Board,57472050-3830-4322-9041-646a7573746d,rev?*%
%TF.SameCoordinates,Original*%
%TF.FileFunction,Legend,Top*%
%TF.FilePolarity,Positive*%
%FSLAX46Y46*%
G04 Gerber Fmt 4.6, Leading zero omitted, Abs format (unit mm)*
G04 Created by KiCad (PCBNEW 8.0.7) date 2025-03-30 18:54:05*
%MOMM*%
%LPD*%
G01*
G04 APERTURE LIST*
%ADD10C,0.300000*%
%ADD11C,0.150000*%
%ADD12C,0.120000*%
G04 APERTURE END LIST*
D10*
X68559524Y-63659638D02*
X69226190Y-65659638D01*
X69226190Y-65659638D02*
X69892857Y-63659638D01*
X70559524Y-64897733D02*
X72083334Y-64897733D01*
X72940476Y-65564400D02*
X73226190Y-65659638D01*
X73226190Y-65659638D02*
X73702381Y-65659638D01*
X73702381Y-65659638D02*
X73892857Y-65564400D01*
X73892857Y-65564400D02*
X73988095Y-65469161D01*
X73988095Y-65469161D02*
X74083333Y-65278685D01*
X74083333Y-65278685D02*
X74083333Y-65088209D01*
X74083333Y-65088209D02*
X73988095Y-64897733D01*
X73988095Y-64897733D02*
X73892857Y-64802495D01*
X73892857Y-64802495D02*
X73702381Y-64707257D01*
X73702381Y-64707257D02*
X73321428Y-64612019D01*
X73321428Y-64612019D02*
X73130952Y-64516780D01*
X73130952Y-64516780D02*
X73035714Y-64421542D01*
X73035714Y-64421542D02*
X72940476Y-64231066D01*
X72940476Y-64231066D02*
X72940476Y-64040590D01*
X72940476Y-64040590D02*
X73035714Y-63850114D01*
X73035714Y-63850114D02*
X73130952Y-63754876D01*
X73130952Y-63754876D02*
X73321428Y-63659638D01*
X73321428Y-63659638D02*
X73797619Y-63659638D01*
X73797619Y-63659638D02*
X74083333Y-63754876D01*
X74940476Y-65659638D02*
X74940476Y-63659638D01*
X75702381Y-63659638D02*
X77035714Y-63659638D01*
X77035714Y-63659638D02*
X75702381Y-65659638D01*
X75702381Y-65659638D02*
X77035714Y-65659638D01*
X77797619Y-64612019D02*
X78464286Y-64612019D01*
X78750000Y-65659638D02*
X77797619Y-65659638D01*
X77797619Y-65659638D02*
X77797619Y-63659638D01*
X77797619Y-63659638D02*
X78750000Y-63659638D01*
D11*
X71860588Y-30869819D02*
X71289160Y-30869819D01*
X71574874Y-30869819D02*
X71574874Y-29869819D01*
X71574874Y-29869819D02*
X71479636Y-30012676D01*
X71479636Y-30012676D02*
X71384398Y-30107914D01*
X71384398Y-30107914D02*
X71289160Y-30155533D01*
D10*
X75849047Y-33959638D02*
X75849047Y-31959638D01*
X75849047Y-31959638D02*
X76610952Y-31959638D01*
X76610952Y-31959638D02*
X76801428Y-32054876D01*
X76801428Y-32054876D02*
X76896666Y-32150114D01*
X76896666Y-32150114D02*
X76991904Y-32340590D01*
X76991904Y-32340590D02*
X76991904Y-32626304D01*
X76991904Y-32626304D02*
X76896666Y-32816780D01*
X76896666Y-32816780D02*
X76801428Y-32912019D01*
X76801428Y-32912019D02*
X76610952Y-33007257D01*
X76610952Y-33007257D02*
X75849047Y-33007257D01*
X78134761Y-32816780D02*
X77944285Y-32721542D01*
X77944285Y-32721542D02*
X77849047Y-32626304D01*
X77849047Y-32626304D02*
X77753809Y-32435828D01*
X77753809Y-32435828D02*
X77753809Y-32340590D01*
X77753809Y-32340590D02*
X77849047Y-32150114D01*
X77849047Y-32150114D02*
X77944285Y-32054876D01*
X77944285Y-32054876D02*
X78134761Y-31959638D01*
X78134761Y-31959638D02*
X78515714Y-31959638D01*
X78515714Y-31959638D02*
X78706190Y-32054876D01*
X78706190Y-32054876D02*
X78801428Y-32150114D01*
X78801428Y-32150114D02*
X78896666Y-32340590D01*
X78896666Y-32340590D02*
X78896666Y-32435828D01*
X78896666Y-32435828D02*
X78801428Y-32626304D01*
X78801428Y-32626304D02*
X78706190Y-32721542D01*
X78706190Y-32721542D02*
X78515714Y-32816780D01*
X78515714Y-32816780D02*
X78134761Y-32816780D01*
X78134761Y-32816780D02*
X77944285Y-32912019D01*
X77944285Y-32912019D02*
X77849047Y-33007257D01*
X77849047Y-33007257D02*
X77753809Y-33197733D01*
X77753809Y-33197733D02*
X77753809Y-33578685D01*
X77753809Y-33578685D02*
X77849047Y-33769161D01*
X77849047Y-33769161D02*
X77944285Y-33864400D01*
X77944285Y-33864400D02*
X78134761Y-33959638D01*
X78134761Y-33959638D02*
X78515714Y-33959638D01*
X78515714Y-33959638D02*
X78706190Y-33864400D01*
X78706190Y-33864400D02*
X78801428Y-33769161D01*
X78801428Y-33769161D02*
X78896666Y-33578685D01*
X78896666Y-33578685D02*
X78896666Y-33197733D01*
X78896666Y-33197733D02*
X78801428Y-33007257D01*
X78801428Y-33007257D02*
X78706190Y-32912019D01*
X78706190Y-32912019D02*
X78515714Y-32816780D01*
X80134761Y-31959638D02*
X80325238Y-31959638D01*
X80325238Y-31959638D02*
X80515714Y-32054876D01*
X80515714Y-32054876D02*
X80610952Y-32150114D01*
X80610952Y-32150114D02*
X80706190Y-32340590D01*
X80706190Y-32340590D02*
X80801428Y-32721542D01*
X80801428Y-32721542D02*
X80801428Y-33197733D01*
X80801428Y-33197733D02*
X80706190Y-33578685D01*
X80706190Y-33578685D02*
X80610952Y-33769161D01*
X80610952Y-33769161D02*
X80515714Y-33864400D01*
X80515714Y-33864400D02*
X80325238Y-33959638D01*
X80325238Y-33959638D02*
X80134761Y-33959638D01*
X80134761Y-33959638D02*
X79944285Y-33864400D01*
X79944285Y-33864400D02*
X79849047Y-33769161D01*
X79849047Y-33769161D02*
X79753809Y-33578685D01*
X79753809Y-33578685D02*
X79658571Y-33197733D01*
X79658571Y-33197733D02*
X79658571Y-32721542D01*
X79658571Y-32721542D02*
X79753809Y-32340590D01*
X79753809Y-32340590D02*
X79849047Y-32150114D01*
X79849047Y-32150114D02*
X79944285Y-32054876D01*
X79944285Y-32054876D02*
X80134761Y-31959638D01*
X81563333Y-32150114D02*
X81658571Y-32054876D01*
X81658571Y-32054876D02*
X81849047Y-31959638D01*
X81849047Y-31959638D02*
X82325238Y-31959638D01*
X82325238Y-31959638D02*
X82515714Y-32054876D01*
X82515714Y-32054876D02*
X82610952Y-32150114D01*
X82610952Y-32150114D02*
X82706190Y-32340590D01*
X82706190Y-32340590D02*
X82706190Y-32531066D01*
X82706190Y-32531066D02*
X82610952Y-32816780D01*
X82610952Y-32816780D02*
X81468095Y-33959638D01*
X81468095Y-33959638D02*
X82706190Y-33959638D01*
X33595238Y-48159638D02*
X34261904Y-50159638D01*
X34261904Y-50159638D02*
X34928571Y-48159638D01*
X35595238Y-49397733D02*
X37119048Y-49397733D01*
X38071428Y-50159638D02*
X38071428Y-48159638D01*
X38071428Y-48159638D02*
X38833333Y-48159638D01*
X38833333Y-48159638D02*
X39023809Y-48254876D01*
X39023809Y-48254876D02*
X39119047Y-48350114D01*
X39119047Y-48350114D02*
X39214285Y-48540590D01*
X39214285Y-48540590D02*
X39214285Y-48826304D01*
X39214285Y-48826304D02*
X39119047Y-49016780D01*
X39119047Y-49016780D02*
X39023809Y-49112019D01*
X39023809Y-49112019D02*
X38833333Y-49207257D01*
X38833333Y-49207257D02*
X38071428Y-49207257D01*
X40452380Y-48159638D02*
X40833333Y-48159638D01*
X40833333Y-48159638D02*
X41023809Y-48254876D01*
X41023809Y-48254876D02*
X41214285Y-48445352D01*
X41214285Y-48445352D02*
X41309523Y-48826304D01*
X41309523Y-48826304D02*
X41309523Y-49492971D01*
X41309523Y-49492971D02*
X41214285Y-49873923D01*
X41214285Y-49873923D02*
X41023809Y-50064400D01*
X41023809Y-50064400D02*
X40833333Y-50159638D01*
X40833333Y-50159638D02*
X40452380Y-50159638D01*
X40452380Y-50159638D02*
X40261904Y-50064400D01*
X40261904Y-50064400D02*
X40071428Y-49873923D01*
X40071428Y-49873923D02*
X39976190Y-49492971D01*
X39976190Y-49492971D02*
X39976190Y-48826304D01*
X39976190Y-48826304D02*
X40071428Y-48445352D01*
X40071428Y-48445352D02*
X40261904Y-48254876D01*
X40261904Y-48254876D02*
X40452380Y-48159638D01*
X42071428Y-50064400D02*
X42357142Y-50159638D01*
X42357142Y-50159638D02*
X42833333Y-50159638D01*
X42833333Y-50159638D02*
X43023809Y-50064400D01*
X43023809Y-50064400D02*
X43119047Y-49969161D01*
X43119047Y-49969161D02*
X43214285Y-49778685D01*
X43214285Y-49778685D02*
X43214285Y-49588209D01*
X43214285Y-49588209D02*
X43119047Y-49397733D01*
X43119047Y-49397733D02*
X43023809Y-49302495D01*
X43023809Y-49302495D02*
X42833333Y-49207257D01*
X42833333Y-49207257D02*
X42452380Y-49112019D01*
X42452380Y-49112019D02*
X42261904Y-49016780D01*
X42261904Y-49016780D02*
X42166666Y-48921542D01*
X42166666Y-48921542D02*
X42071428Y-48731066D01*
X42071428Y-48731066D02*
X42071428Y-48540590D01*
X42071428Y-48540590D02*
X42166666Y-48350114D01*
X42166666Y-48350114D02*
X42261904Y-48254876D01*
X42261904Y-48254876D02*
X42452380Y-48159638D01*
X42452380Y-48159638D02*
X42928571Y-48159638D01*
X42928571Y-48159638D02*
X43214285Y-48254876D01*
X67940475Y-49969161D02*
X67845237Y-50064400D01*
X67845237Y-50064400D02*
X67559523Y-50159638D01*
X67559523Y-50159638D02*
X67369047Y-50159638D01*
X67369047Y-50159638D02*
X67083332Y-50064400D01*
X67083332Y-50064400D02*
X66892856Y-49873923D01*
X66892856Y-49873923D02*
X66797618Y-49683447D01*
X66797618Y-49683447D02*
X66702380Y-49302495D01*
X66702380Y-49302495D02*
X66702380Y-49016780D01*
X66702380Y-49016780D02*
X66797618Y-48635828D01*
X66797618Y-48635828D02*
X66892856Y-48445352D01*
X66892856Y-48445352D02*
X67083332Y-48254876D01*
X67083332Y-48254876D02*
X67369047Y-48159638D01*
X67369047Y-48159638D02*
X67559523Y-48159638D01*
X67559523Y-48159638D02*
X67845237Y-48254876D01*
X67845237Y-48254876D02*
X67940475Y-48350114D01*
X69178570Y-48159638D02*
X69559523Y-48159638D01*
X69559523Y-48159638D02*
X69749999Y-48254876D01*
X69749999Y-48254876D02*
X69940475Y-48445352D01*
X69940475Y-48445352D02*
X70035713Y-48826304D01*
X70035713Y-48826304D02*
X70035713Y-49492971D01*
X70035713Y-49492971D02*
X69940475Y-49873923D01*
X69940475Y-49873923D02*
X69749999Y-50064400D01*
X69749999Y-50064400D02*
X69559523Y-50159638D01*
X69559523Y-50159638D02*
X69178570Y-50159638D01*
X69178570Y-50159638D02*
X68988094Y-50064400D01*
X68988094Y-50064400D02*
X68797618Y-49873923D01*
X68797618Y-49873923D02*
X68702380Y-49492971D01*
X68702380Y-49492971D02*
X68702380Y-48826304D01*
X68702380Y-48826304D02*
X68797618Y-48445352D01*
X68797618Y-48445352D02*
X68988094Y-48254876D01*
X68988094Y-48254876D02*
X69178570Y-48159638D01*
X70892856Y-50159638D02*
X70892856Y-48159638D01*
X70892856Y-48159638D02*
X72035713Y-50159638D01*
X72035713Y-50159638D02*
X72035713Y-48159638D01*
X72702380Y-48159638D02*
X73845237Y-48159638D01*
X73273808Y-50159638D02*
X73273808Y-48159638D01*
X75654761Y-50159638D02*
X74988094Y-49207257D01*
X74511904Y-50159638D02*
X74511904Y-48159638D01*
X74511904Y-48159638D02*
X75273809Y-48159638D01*
X75273809Y-48159638D02*
X75464285Y-48254876D01*
X75464285Y-48254876D02*
X75559523Y-48350114D01*
X75559523Y-48350114D02*
X75654761Y-48540590D01*
X75654761Y-48540590D02*
X75654761Y-48826304D01*
X75654761Y-48826304D02*
X75559523Y-49016780D01*
X75559523Y-49016780D02*
X75464285Y-49112019D01*
X75464285Y-49112019D02*
X75273809Y-49207257D01*
X75273809Y-49207257D02*
X74511904Y-49207257D01*
X76416666Y-49588209D02*
X77369047Y-49588209D01*
X76226190Y-50159638D02*
X76892856Y-48159638D01*
X76892856Y-48159638D02*
X77559523Y-50159638D01*
X78130952Y-50064400D02*
X78416666Y-50159638D01*
X78416666Y-50159638D02*
X78892857Y-50159638D01*
X78892857Y-50159638D02*
X79083333Y-50064400D01*
X79083333Y-50064400D02*
X79178571Y-49969161D01*
X79178571Y-49969161D02*
X79273809Y-49778685D01*
X79273809Y-49778685D02*
X79273809Y-49588209D01*
X79273809Y-49588209D02*
X79178571Y-49397733D01*
X79178571Y-49397733D02*
X79083333Y-49302495D01*
X79083333Y-49302495D02*
X78892857Y-49207257D01*
X78892857Y-49207257D02*
X78511904Y-49112019D01*
X78511904Y-49112019D02*
X78321428Y-49016780D01*
X78321428Y-49016780D02*
X78226190Y-48921542D01*
X78226190Y-48921542D02*
X78130952Y-48731066D01*
X78130952Y-48731066D02*
X78130952Y-48540590D01*
X78130952Y-48540590D02*
X78226190Y-48350114D01*
X78226190Y-48350114D02*
X78321428Y-48254876D01*
X78321428Y-48254876D02*
X78511904Y-48159638D01*
X78511904Y-48159638D02*
X78988095Y-48159638D01*
X78988095Y-48159638D02*
X79273809Y-48254876D01*
X79845238Y-48159638D02*
X80988095Y-48159638D01*
X80416666Y-50159638D02*
X80416666Y-48159638D01*
X33595238Y-63659638D02*
X34261904Y-65659638D01*
X34261904Y-65659638D02*
X34928571Y-63659638D01*
X35595238Y-64897733D02*
X37119048Y-64897733D01*
X38071428Y-65659638D02*
X38071428Y-63659638D01*
X38071428Y-63659638D02*
X38833333Y-63659638D01*
X38833333Y-63659638D02*
X39023809Y-63754876D01*
X39023809Y-63754876D02*
X39119047Y-63850114D01*
X39119047Y-63850114D02*
X39214285Y-64040590D01*
X39214285Y-64040590D02*
X39214285Y-64326304D01*
X39214285Y-64326304D02*
X39119047Y-64516780D01*
X39119047Y-64516780D02*
X39023809Y-64612019D01*
X39023809Y-64612019D02*
X38833333Y-64707257D01*
X38833333Y-64707257D02*
X38071428Y-64707257D01*
X40452380Y-63659638D02*
X40833333Y-63659638D01*
X40833333Y-63659638D02*
X41023809Y-63754876D01*
X41023809Y-63754876D02*
X41214285Y-63945352D01*
X41214285Y-63945352D02*
X41309523Y-64326304D01*
X41309523Y-64326304D02*
X41309523Y-64992971D01*
X41309523Y-64992971D02*
X41214285Y-65373923D01*
X41214285Y-65373923D02*
X41023809Y-65564400D01*
X41023809Y-65564400D02*
X40833333Y-65659638D01*
X40833333Y-65659638D02*
X40452380Y-65659638D01*
X40452380Y-65659638D02*
X40261904Y-65564400D01*
X40261904Y-65564400D02*
X40071428Y-65373923D01*
X40071428Y-65373923D02*
X39976190Y-64992971D01*
X39976190Y-64992971D02*
X39976190Y-64326304D01*
X39976190Y-64326304D02*
X40071428Y-63945352D01*
X40071428Y-63945352D02*
X40261904Y-63754876D01*
X40261904Y-63754876D02*
X40452380Y-63659638D01*
X42071428Y-65564400D02*
X42357142Y-65659638D01*
X42357142Y-65659638D02*
X42833333Y-65659638D01*
X42833333Y-65659638D02*
X43023809Y-65564400D01*
X43023809Y-65564400D02*
X43119047Y-65469161D01*
X43119047Y-65469161D02*
X43214285Y-65278685D01*
X43214285Y-65278685D02*
X43214285Y-65088209D01*
X43214285Y-65088209D02*
X43119047Y-64897733D01*
X43119047Y-64897733D02*
X43023809Y-64802495D01*
X43023809Y-64802495D02*
X42833333Y-64707257D01*
X42833333Y-64707257D02*
X42452380Y-64612019D01*
X42452380Y-64612019D02*
X42261904Y-64516780D01*
X42261904Y-64516780D02*
X42166666Y-64421542D01*
X42166666Y-64421542D02*
X42071428Y-64231066D01*
X42071428Y-64231066D02*
X42071428Y-64040590D01*
X42071428Y-64040590D02*
X42166666Y-63850114D01*
X42166666Y-63850114D02*
X42261904Y-63754876D01*
X42261904Y-63754876D02*
X42452380Y-63659638D01*
X42452380Y-63659638D02*
X42928571Y-63659638D01*
X42928571Y-63659638D02*
X43214285Y-63754876D01*
X49410713Y-49112019D02*
X49696427Y-49207257D01*
X49696427Y-49207257D02*
X49791665Y-49302495D01*
X49791665Y-49302495D02*
X49886903Y-49492971D01*
X49886903Y-49492971D02*
X49886903Y-49778685D01*
X49886903Y-49778685D02*
X49791665Y-49969161D01*
X49791665Y-49969161D02*
X49696427Y-50064400D01*
X49696427Y-50064400D02*
X49505951Y-50159638D01*
X49505951Y-50159638D02*
X48744046Y-50159638D01*
X48744046Y-50159638D02*
X48744046Y-48159638D01*
X48744046Y-48159638D02*
X49410713Y-48159638D01*
X49410713Y-48159638D02*
X49601189Y-48254876D01*
X49601189Y-48254876D02*
X49696427Y-48350114D01*
X49696427Y-48350114D02*
X49791665Y-48540590D01*
X49791665Y-48540590D02*
X49791665Y-48731066D01*
X49791665Y-48731066D02*
X49696427Y-48921542D01*
X49696427Y-48921542D02*
X49601189Y-49016780D01*
X49601189Y-49016780D02*
X49410713Y-49112019D01*
X49410713Y-49112019D02*
X48744046Y-49112019D01*
X51696427Y-50159638D02*
X50744046Y-50159638D01*
X50744046Y-50159638D02*
X50744046Y-48159638D01*
X52363094Y-50159638D02*
X52363094Y-48159638D01*
X53505951Y-50159638D02*
X52648808Y-49016780D01*
X53505951Y-48159638D02*
X52363094Y-49302495D01*
X56839285Y-50159638D02*
X55886904Y-50159638D01*
X55886904Y-50159638D02*
X55886904Y-48159638D01*
X57505952Y-49112019D02*
X58172619Y-49112019D01*
X58458333Y-50159638D02*
X57505952Y-50159638D01*
X57505952Y-50159638D02*
X57505952Y-48159638D01*
X57505952Y-48159638D02*
X58458333Y-48159638D01*
X59029762Y-48159638D02*
X59696428Y-50159638D01*
X59696428Y-50159638D02*
X60363095Y-48159638D01*
X61029762Y-49112019D02*
X61696429Y-49112019D01*
X61982143Y-50159638D02*
X61029762Y-50159638D01*
X61029762Y-50159638D02*
X61029762Y-48159638D01*
X61029762Y-48159638D02*
X61982143Y-48159638D01*
X63791667Y-50159638D02*
X62839286Y-50159638D01*
X62839286Y-50159638D02*
X62839286Y-48159638D01*
X50315476Y-63659638D02*
X50982142Y-65659638D01*
X50982142Y-65659638D02*
X51648809Y-63659638D01*
X52315476Y-64897733D02*
X53839286Y-64897733D01*
X54791666Y-65659638D02*
X54791666Y-63659638D01*
X54791666Y-64612019D02*
X55934523Y-64612019D01*
X55934523Y-65659638D02*
X55934523Y-63659638D01*
X57267856Y-63659638D02*
X57648809Y-63659638D01*
X57648809Y-63659638D02*
X57839285Y-63754876D01*
X57839285Y-63754876D02*
X58029761Y-63945352D01*
X58029761Y-63945352D02*
X58124999Y-64326304D01*
X58124999Y-64326304D02*
X58124999Y-64992971D01*
X58124999Y-64992971D02*
X58029761Y-65373923D01*
X58029761Y-65373923D02*
X57839285Y-65564400D01*
X57839285Y-65564400D02*
X57648809Y-65659638D01*
X57648809Y-65659638D02*
X57267856Y-65659638D01*
X57267856Y-65659638D02*
X57077380Y-65564400D01*
X57077380Y-65564400D02*
X56886904Y-65373923D01*
X56886904Y-65373923D02*
X56791666Y-64992971D01*
X56791666Y-64992971D02*
X56791666Y-64326304D01*
X56791666Y-64326304D02*
X56886904Y-63945352D01*
X56886904Y-63945352D02*
X57077380Y-63754876D01*
X57077380Y-63754876D02*
X57267856Y-63659638D01*
X59934523Y-65659638D02*
X58982142Y-65659638D01*
X58982142Y-65659638D02*
X58982142Y-63659638D01*
X60601190Y-65659638D02*
X60601190Y-63659638D01*
X60601190Y-63659638D02*
X61077380Y-63659638D01*
X61077380Y-63659638D02*
X61363095Y-63754876D01*
X61363095Y-63754876D02*
X61553571Y-63945352D01*
X61553571Y-63945352D02*
X61648809Y-64135828D01*
X61648809Y-64135828D02*
X61744047Y-64516780D01*
X61744047Y-64516780D02*
X61744047Y-64802495D01*
X61744047Y-64802495D02*
X61648809Y-65183447D01*
X61648809Y-65183447D02*
X61553571Y-65373923D01*
X61553571Y-65373923D02*
X61363095Y-65564400D01*
X61363095Y-65564400D02*
X61077380Y-65659638D01*
X61077380Y-65659638D02*
X60601190Y-65659638D01*
D11*
X30834819Y-43461904D02*
X31834819Y-43128571D01*
X31834819Y-43128571D02*
X30834819Y-42795238D01*
X31834819Y-41890476D02*
X31358628Y-42223809D01*
X31834819Y-42461904D02*
X30834819Y-42461904D01*
X30834819Y-42461904D02*
X30834819Y-42080952D01*
X30834819Y-42080952D02*
X30882438Y-41985714D01*
X30882438Y-41985714D02*
X30930057Y-41938095D01*
X30930057Y-41938095D02*
X31025295Y-41890476D01*
X31025295Y-41890476D02*
X31168152Y-41890476D01*
X31168152Y-41890476D02*
X31263390Y-41938095D01*
X31263390Y-41938095D02*
X31311009Y-41985714D01*
X31311009Y-41985714D02*
X31358628Y-42080952D01*
X31358628Y-42080952D02*
X31358628Y-42461904D01*
X31834819Y-40938095D02*
X31834819Y-41509523D01*
X31834819Y-41223809D02*
X30834819Y-41223809D01*
X30834819Y-41223809D02*
X30977676Y-41319047D01*
X30977676Y-41319047D02*
X31072914Y-41414285D01*
X31072914Y-41414285D02*
X31120533Y-41509523D01*
X30834819Y-40319047D02*
X30834819Y-40223809D01*
X30834819Y-40223809D02*
X30882438Y-40128571D01*
X30882438Y-40128571D02*
X30930057Y-40080952D01*
X30930057Y-40080952D02*
X31025295Y-40033333D01*
X31025295Y-40033333D02*
X31215771Y-39985714D01*
X31215771Y-39985714D02*
X31453866Y-39985714D01*
X31453866Y-39985714D02*
X31644342Y-40033333D01*
X31644342Y-40033333D02*
X31739580Y-40080952D01*
X31739580Y-40080952D02*
X31787200Y-40128571D01*
X31787200Y-40128571D02*
X31834819Y-40223809D01*
X31834819Y-40223809D02*
X31834819Y-40319047D01*
X31834819Y-40319047D02*
X31787200Y-40414285D01*
X31787200Y-40414285D02*
X31739580Y-40461904D01*
X31739580Y-40461904D02*
X31644342Y-40509523D01*
X31644342Y-40509523D02*
X31453866Y-40557142D01*
X31453866Y-40557142D02*
X31215771Y-40557142D01*
X31215771Y-40557142D02*
X31025295Y-40509523D01*
X31025295Y-40509523D02*
X30930057Y-40461904D01*
X30930057Y-40461904D02*
X30882438Y-40414285D01*
X30882438Y-40414285D02*
X30834819Y-40319047D01*
X30834819Y-39652380D02*
X30834819Y-39033333D01*
X30834819Y-39033333D02*
X31215771Y-39366666D01*
X31215771Y-39366666D02*
X31215771Y-39223809D01*
X31215771Y-39223809D02*
X31263390Y-39128571D01*
X31263390Y-39128571D02*
X31311009Y-39080952D01*
X31311009Y-39080952D02*
X31406247Y-39033333D01*
X31406247Y-39033333D02*
X31644342Y-39033333D01*
X31644342Y-39033333D02*
X31739580Y-39080952D01*
X31739580Y-39080952D02*
X31787200Y-39128571D01*
X31787200Y-39128571D02*
X31834819Y-39223809D01*
X31834819Y-39223809D02*
X31834819Y-39509523D01*
X31834819Y-39509523D02*
X31787200Y-39604761D01*
X31787200Y-39604761D02*
X31739580Y-39652380D01*
X37333333Y-40650057D02*
X37380952Y-40602438D01*
X37380952Y-40602438D02*
X37476190Y-40554819D01*
X37476190Y-40554819D02*
X37714285Y-40554819D01*
X37714285Y-40554819D02*
X37809523Y-40602438D01*
X37809523Y-40602438D02*
X37857142Y-40650057D01*
X37857142Y-40650057D02*
X37904761Y-40745295D01*
X37904761Y-40745295D02*
X37904761Y-40840533D01*
X37904761Y-40840533D02*
X37857142Y-40983390D01*
X37857142Y-40983390D02*
X37285714Y-41554819D01*
X37285714Y-41554819D02*
X37904761Y-41554819D01*
X38809523Y-40554819D02*
X38333333Y-40554819D01*
X38333333Y-40554819D02*
X38285714Y-41031009D01*
X38285714Y-41031009D02*
X38333333Y-40983390D01*
X38333333Y-40983390D02*
X38428571Y-40935771D01*
X38428571Y-40935771D02*
X38666666Y-40935771D01*
X38666666Y-40935771D02*
X38761904Y-40983390D01*
X38761904Y-40983390D02*
X38809523Y-41031009D01*
X38809523Y-41031009D02*
X38857142Y-41126247D01*
X38857142Y-41126247D02*
X38857142Y-41364342D01*
X38857142Y-41364342D02*
X38809523Y-41459580D01*
X38809523Y-41459580D02*
X38761904Y-41507200D01*
X38761904Y-41507200D02*
X38666666Y-41554819D01*
X38666666Y-41554819D02*
X38428571Y-41554819D01*
X38428571Y-41554819D02*
X38333333Y-41507200D01*
X38333333Y-41507200D02*
X38285714Y-41459580D01*
X39285714Y-41554819D02*
X39285714Y-40554819D01*
X39380952Y-41173866D02*
X39666666Y-41554819D01*
X39666666Y-40888152D02*
X39285714Y-41269104D01*
X48324819Y-43461904D02*
X49324819Y-43128571D01*
X49324819Y-43128571D02*
X48324819Y-42795238D01*
X49324819Y-41890476D02*
X48848628Y-42223809D01*
X49324819Y-42461904D02*
X48324819Y-42461904D01*
X48324819Y-42461904D02*
X48324819Y-42080952D01*
X48324819Y-42080952D02*
X48372438Y-41985714D01*
X48372438Y-41985714D02*
X48420057Y-41938095D01*
X48420057Y-41938095D02*
X48515295Y-41890476D01*
X48515295Y-41890476D02*
X48658152Y-41890476D01*
X48658152Y-41890476D02*
X48753390Y-41938095D01*
X48753390Y-41938095D02*
X48801009Y-41985714D01*
X48801009Y-41985714D02*
X48848628Y-42080952D01*
X48848628Y-42080952D02*
X48848628Y-42461904D01*
X49324819Y-40938095D02*
X49324819Y-41509523D01*
X49324819Y-41223809D02*
X48324819Y-41223809D01*
X48324819Y-41223809D02*
X48467676Y-41319047D01*
X48467676Y-41319047D02*
X48562914Y-41414285D01*
X48562914Y-41414285D02*
X48610533Y-41509523D01*
X48324819Y-40319047D02*
X48324819Y-40223809D01*
X48324819Y-40223809D02*
X48372438Y-40128571D01*
X48372438Y-40128571D02*
X48420057Y-40080952D01*
X48420057Y-40080952D02*
X48515295Y-40033333D01*
X48515295Y-40033333D02*
X48705771Y-39985714D01*
X48705771Y-39985714D02*
X48943866Y-39985714D01*
X48943866Y-39985714D02*
X49134342Y-40033333D01*
X49134342Y-40033333D02*
X49229580Y-40080952D01*
X49229580Y-40080952D02*
X49277200Y-40128571D01*
X49277200Y-40128571D02*
X49324819Y-40223809D01*
X49324819Y-40223809D02*
X49324819Y-40319047D01*
X49324819Y-40319047D02*
X49277200Y-40414285D01*
X49277200Y-40414285D02*
X49229580Y-40461904D01*
X49229580Y-40461904D02*
X49134342Y-40509523D01*
X49134342Y-40509523D02*
X48943866Y-40557142D01*
X48943866Y-40557142D02*
X48705771Y-40557142D01*
X48705771Y-40557142D02*
X48515295Y-40509523D01*
X48515295Y-40509523D02*
X48420057Y-40461904D01*
X48420057Y-40461904D02*
X48372438Y-40414285D01*
X48372438Y-40414285D02*
X48324819Y-40319047D01*
X48420057Y-39604761D02*
X48372438Y-39557142D01*
X48372438Y-39557142D02*
X48324819Y-39461904D01*
X48324819Y-39461904D02*
X48324819Y-39223809D01*
X48324819Y-39223809D02*
X48372438Y-39128571D01*
X48372438Y-39128571D02*
X48420057Y-39080952D01*
X48420057Y-39080952D02*
X48515295Y-39033333D01*
X48515295Y-39033333D02*
X48610533Y-39033333D01*
X48610533Y-39033333D02*
X48753390Y-39080952D01*
X48753390Y-39080952D02*
X49324819Y-39652380D01*
X49324819Y-39652380D02*
X49324819Y-39033333D01*
X55434524Y-40650057D02*
X55482143Y-40602438D01*
X55482143Y-40602438D02*
X55577381Y-40554819D01*
X55577381Y-40554819D02*
X55815476Y-40554819D01*
X55815476Y-40554819D02*
X55910714Y-40602438D01*
X55910714Y-40602438D02*
X55958333Y-40650057D01*
X55958333Y-40650057D02*
X56005952Y-40745295D01*
X56005952Y-40745295D02*
X56005952Y-40840533D01*
X56005952Y-40840533D02*
X55958333Y-40983390D01*
X55958333Y-40983390D02*
X55386905Y-41554819D01*
X55386905Y-41554819D02*
X56005952Y-41554819D01*
X56434524Y-41554819D02*
X56434524Y-40554819D01*
X56529762Y-41173866D02*
X56815476Y-41554819D01*
X56815476Y-40888152D02*
X56434524Y-41269104D01*
X73399819Y-30833333D02*
X74114104Y-30833333D01*
X74114104Y-30833333D02*
X74256961Y-30880952D01*
X74256961Y-30880952D02*
X74352200Y-30976190D01*
X74352200Y-30976190D02*
X74399819Y-31119047D01*
X74399819Y-31119047D02*
X74399819Y-31214285D01*
X74399819Y-29833333D02*
X74399819Y-30404761D01*
X74399819Y-30119047D02*
X73399819Y-30119047D01*
X73399819Y-30119047D02*
X73542676Y-30214285D01*
X73542676Y-30214285D02*
X73637914Y-30309523D01*
X73637914Y-30309523D02*
X73685533Y-30404761D01*
X66004819Y-43461904D02*
X67004819Y-43128571D01*
X67004819Y-43128571D02*
X66004819Y-42795238D01*
X67004819Y-41890476D02*
X66528628Y-42223809D01*
X67004819Y-42461904D02*
X66004819Y-42461904D01*
X66004819Y-42461904D02*
X66004819Y-42080952D01*
X66004819Y-42080952D02*
X66052438Y-41985714D01*
X66052438Y-41985714D02*
X66100057Y-41938095D01*
X66100057Y-41938095D02*
X66195295Y-41890476D01*
X66195295Y-41890476D02*
X66338152Y-41890476D01*
X66338152Y-41890476D02*
X66433390Y-41938095D01*
X66433390Y-41938095D02*
X66481009Y-41985714D01*
X66481009Y-41985714D02*
X66528628Y-42080952D01*
X66528628Y-42080952D02*
X66528628Y-42461904D01*
X67004819Y-40938095D02*
X67004819Y-41509523D01*
X67004819Y-41223809D02*
X66004819Y-41223809D01*
X66004819Y-41223809D02*
X66147676Y-41319047D01*
X66147676Y-41319047D02*
X66242914Y-41414285D01*
X66242914Y-41414285D02*
X66290533Y-41509523D01*
X66004819Y-40319047D02*
X66004819Y-40223809D01*
X66004819Y-40223809D02*
X66052438Y-40128571D01*
X66052438Y-40128571D02*
X66100057Y-40080952D01*
X66100057Y-40080952D02*
X66195295Y-40033333D01*
X66195295Y-40033333D02*
X66385771Y-39985714D01*
X66385771Y-39985714D02*
X66623866Y-39985714D01*
X66623866Y-39985714D02*
X66814342Y-40033333D01*
X66814342Y-40033333D02*
X66909580Y-40080952D01*
X66909580Y-40080952D02*
X66957200Y-40128571D01*
X66957200Y-40128571D02*
X67004819Y-40223809D01*
X67004819Y-40223809D02*
X67004819Y-40319047D01*
X67004819Y-40319047D02*
X66957200Y-40414285D01*
X66957200Y-40414285D02*
X66909580Y-40461904D01*
X66909580Y-40461904D02*
X66814342Y-40509523D01*
X66814342Y-40509523D02*
X66623866Y-40557142D01*
X66623866Y-40557142D02*
X66385771Y-40557142D01*
X66385771Y-40557142D02*
X66195295Y-40509523D01*
X66195295Y-40509523D02*
X66100057Y-40461904D01*
X66100057Y-40461904D02*
X66052438Y-40414285D01*
X66052438Y-40414285D02*
X66004819Y-40319047D01*
X67004819Y-39033333D02*
X67004819Y-39604761D01*
X67004819Y-39319047D02*
X66004819Y-39319047D01*
X66004819Y-39319047D02*
X66147676Y-39414285D01*
X66147676Y-39414285D02*
X66242914Y-39509523D01*
X66242914Y-39509523D02*
X66290533Y-39604761D01*
X73154761Y-41554819D02*
X72583333Y-41554819D01*
X72869047Y-41554819D02*
X72869047Y-40554819D01*
X72869047Y-40554819D02*
X72773809Y-40697676D01*
X72773809Y-40697676D02*
X72678571Y-40792914D01*
X72678571Y-40792914D02*
X72583333Y-40840533D01*
X73773809Y-40554819D02*
X73869047Y-40554819D01*
X73869047Y-40554819D02*
X73964285Y-40602438D01*
X73964285Y-40602438D02*
X74011904Y-40650057D01*
X74011904Y-40650057D02*
X74059523Y-40745295D01*
X74059523Y-40745295D02*
X74107142Y-40935771D01*
X74107142Y-40935771D02*
X74107142Y-41173866D01*
X74107142Y-41173866D02*
X74059523Y-41364342D01*
X74059523Y-41364342D02*
X74011904Y-41459580D01*
X74011904Y-41459580D02*
X73964285Y-41507200D01*
X73964285Y-41507200D02*
X73869047Y-41554819D01*
X73869047Y-41554819D02*
X73773809Y-41554819D01*
X73773809Y-41554819D02*
X73678571Y-41507200D01*
X73678571Y-41507200D02*
X73630952Y-41459580D01*
X73630952Y-41459580D02*
X73583333Y-41364342D01*
X73583333Y-41364342D02*
X73535714Y-41173866D01*
X73535714Y-41173866D02*
X73535714Y-40935771D01*
X73535714Y-40935771D02*
X73583333Y-40745295D01*
X73583333Y-40745295D02*
X73630952Y-40650057D01*
X73630952Y-40650057D02*
X73678571Y-40602438D01*
X73678571Y-40602438D02*
X73773809Y-40554819D01*
X74535714Y-41554819D02*
X74535714Y-40554819D01*
X74630952Y-41173866D02*
X74916666Y-41554819D01*
X74916666Y-40888152D02*
X74535714Y-41269104D01*
X48544819Y-58951904D02*
X49544819Y-58618571D01*
X49544819Y-58618571D02*
X48544819Y-58285238D01*
X49544819Y-57380476D02*
X49068628Y-57713809D01*
X49544819Y-57951904D02*
X48544819Y-57951904D01*
X48544819Y-57951904D02*
X48544819Y-57570952D01*
X48544819Y-57570952D02*
X48592438Y-57475714D01*
X48592438Y-57475714D02*
X48640057Y-57428095D01*
X48640057Y-57428095D02*
X48735295Y-57380476D01*
X48735295Y-57380476D02*
X48878152Y-57380476D01*
X48878152Y-57380476D02*
X48973390Y-57428095D01*
X48973390Y-57428095D02*
X49021009Y-57475714D01*
X49021009Y-57475714D02*
X49068628Y-57570952D01*
X49068628Y-57570952D02*
X49068628Y-57951904D01*
X49544819Y-56428095D02*
X49544819Y-56999523D01*
X49544819Y-56713809D02*
X48544819Y-56713809D01*
X48544819Y-56713809D02*
X48687676Y-56809047D01*
X48687676Y-56809047D02*
X48782914Y-56904285D01*
X48782914Y-56904285D02*
X48830533Y-56999523D01*
X48544819Y-55809047D02*
X48544819Y-55713809D01*
X48544819Y-55713809D02*
X48592438Y-55618571D01*
X48592438Y-55618571D02*
X48640057Y-55570952D01*
X48640057Y-55570952D02*
X48735295Y-55523333D01*
X48735295Y-55523333D02*
X48925771Y-55475714D01*
X48925771Y-55475714D02*
X49163866Y-55475714D01*
X49163866Y-55475714D02*
X49354342Y-55523333D01*
X49354342Y-55523333D02*
X49449580Y-55570952D01*
X49449580Y-55570952D02*
X49497200Y-55618571D01*
X49497200Y-55618571D02*
X49544819Y-55713809D01*
X49544819Y-55713809D02*
X49544819Y-55809047D01*
X49544819Y-55809047D02*
X49497200Y-55904285D01*
X49497200Y-55904285D02*
X49449580Y-55951904D01*
X49449580Y-55951904D02*
X49354342Y-55999523D01*
X49354342Y-55999523D02*
X49163866Y-56047142D01*
X49163866Y-56047142D02*
X48925771Y-56047142D01*
X48925771Y-56047142D02*
X48735295Y-55999523D01*
X48735295Y-55999523D02*
X48640057Y-55951904D01*
X48640057Y-55951904D02*
X48592438Y-55904285D01*
X48592438Y-55904285D02*
X48544819Y-55809047D01*
X48544819Y-54570952D02*
X48544819Y-55047142D01*
X48544819Y-55047142D02*
X49021009Y-55094761D01*
X49021009Y-55094761D02*
X48973390Y-55047142D01*
X48973390Y-55047142D02*
X48925771Y-54951904D01*
X48925771Y-54951904D02*
X48925771Y-54713809D01*
X48925771Y-54713809D02*
X48973390Y-54618571D01*
X48973390Y-54618571D02*
X49021009Y-54570952D01*
X49021009Y-54570952D02*
X49116247Y-54523333D01*
X49116247Y-54523333D02*
X49354342Y-54523333D01*
X49354342Y-54523333D02*
X49449580Y-54570952D01*
X49449580Y-54570952D02*
X49497200Y-54618571D01*
X49497200Y-54618571D02*
X49544819Y-54713809D01*
X49544819Y-54713809D02*
X49544819Y-54951904D01*
X49544819Y-54951904D02*
X49497200Y-55047142D01*
X49497200Y-55047142D02*
X49449580Y-55094761D01*
X55005952Y-56054819D02*
X54529762Y-56054819D01*
X54529762Y-56054819D02*
X54482143Y-56531009D01*
X54482143Y-56531009D02*
X54529762Y-56483390D01*
X54529762Y-56483390D02*
X54625000Y-56435771D01*
X54625000Y-56435771D02*
X54863095Y-56435771D01*
X54863095Y-56435771D02*
X54958333Y-56483390D01*
X54958333Y-56483390D02*
X55005952Y-56531009D01*
X55005952Y-56531009D02*
X55053571Y-56626247D01*
X55053571Y-56626247D02*
X55053571Y-56864342D01*
X55053571Y-56864342D02*
X55005952Y-56959580D01*
X55005952Y-56959580D02*
X54958333Y-57007200D01*
X54958333Y-57007200D02*
X54863095Y-57054819D01*
X54863095Y-57054819D02*
X54625000Y-57054819D01*
X54625000Y-57054819D02*
X54529762Y-57007200D01*
X54529762Y-57007200D02*
X54482143Y-56959580D01*
X55672619Y-56054819D02*
X55767857Y-56054819D01*
X55767857Y-56054819D02*
X55863095Y-56102438D01*
X55863095Y-56102438D02*
X55910714Y-56150057D01*
X55910714Y-56150057D02*
X55958333Y-56245295D01*
X55958333Y-56245295D02*
X56005952Y-56435771D01*
X56005952Y-56435771D02*
X56005952Y-56673866D01*
X56005952Y-56673866D02*
X55958333Y-56864342D01*
X55958333Y-56864342D02*
X55910714Y-56959580D01*
X55910714Y-56959580D02*
X55863095Y-57007200D01*
X55863095Y-57007200D02*
X55767857Y-57054819D01*
X55767857Y-57054819D02*
X55672619Y-57054819D01*
X55672619Y-57054819D02*
X55577381Y-57007200D01*
X55577381Y-57007200D02*
X55529762Y-56959580D01*
X55529762Y-56959580D02*
X55482143Y-56864342D01*
X55482143Y-56864342D02*
X55434524Y-56673866D01*
X55434524Y-56673866D02*
X55434524Y-56435771D01*
X55434524Y-56435771D02*
X55482143Y-56245295D01*
X55482143Y-56245295D02*
X55529762Y-56150057D01*
X55529762Y-56150057D02*
X55577381Y-56102438D01*
X55577381Y-56102438D02*
X55672619Y-56054819D01*
X56625000Y-56054819D02*
X56720238Y-56054819D01*
X56720238Y-56054819D02*
X56815476Y-56102438D01*
X56815476Y-56102438D02*
X56863095Y-56150057D01*
X56863095Y-56150057D02*
X56910714Y-56245295D01*
X56910714Y-56245295D02*
X56958333Y-56435771D01*
X56958333Y-56435771D02*
X56958333Y-56673866D01*
X56958333Y-56673866D02*
X56910714Y-56864342D01*
X56910714Y-56864342D02*
X56863095Y-56959580D01*
X56863095Y-56959580D02*
X56815476Y-57007200D01*
X56815476Y-57007200D02*
X56720238Y-57054819D01*
X56720238Y-57054819D02*
X56625000Y-57054819D01*
X56625000Y-57054819D02*
X56529762Y-57007200D01*
X56529762Y-57007200D02*
X56482143Y-56959580D01*
X56482143Y-56959580D02*
X56434524Y-56864342D01*
X56434524Y-56864342D02*
X56386905Y-56673866D01*
X56386905Y-56673866D02*
X56386905Y-56435771D01*
X56386905Y-56435771D02*
X56434524Y-56245295D01*
X56434524Y-56245295D02*
X56482143Y-56150057D01*
X56482143Y-56150057D02*
X56529762Y-56102438D01*
X56529762Y-56102438D02*
X56625000Y-56054819D01*
X57386905Y-57054819D02*
X57386905Y-56054819D01*
X57482143Y-56673866D02*
X57767857Y-57054819D01*
X57767857Y-56388152D02*
X57386905Y-56769104D01*
X30884819Y-58951904D02*
X31884819Y-58618571D01*
X31884819Y-58618571D02*
X30884819Y-58285238D01*
X31884819Y-57380476D02*
X31408628Y-57713809D01*
X31884819Y-57951904D02*
X30884819Y-57951904D01*
X30884819Y-57951904D02*
X30884819Y-57570952D01*
X30884819Y-57570952D02*
X30932438Y-57475714D01*
X30932438Y-57475714D02*
X30980057Y-57428095D01*
X30980057Y-57428095D02*
X31075295Y-57380476D01*
X31075295Y-57380476D02*
X31218152Y-57380476D01*
X31218152Y-57380476D02*
X31313390Y-57428095D01*
X31313390Y-57428095D02*
X31361009Y-57475714D01*
X31361009Y-57475714D02*
X31408628Y-57570952D01*
X31408628Y-57570952D02*
X31408628Y-57951904D01*
X31884819Y-56428095D02*
X31884819Y-56999523D01*
X31884819Y-56713809D02*
X30884819Y-56713809D01*
X30884819Y-56713809D02*
X31027676Y-56809047D01*
X31027676Y-56809047D02*
X31122914Y-56904285D01*
X31122914Y-56904285D02*
X31170533Y-56999523D01*
X30884819Y-55809047D02*
X30884819Y-55713809D01*
X30884819Y-55713809D02*
X30932438Y-55618571D01*
X30932438Y-55618571D02*
X30980057Y-55570952D01*
X30980057Y-55570952D02*
X31075295Y-55523333D01*
X31075295Y-55523333D02*
X31265771Y-55475714D01*
X31265771Y-55475714D02*
X31503866Y-55475714D01*
X31503866Y-55475714D02*
X31694342Y-55523333D01*
X31694342Y-55523333D02*
X31789580Y-55570952D01*
X31789580Y-55570952D02*
X31837200Y-55618571D01*
X31837200Y-55618571D02*
X31884819Y-55713809D01*
X31884819Y-55713809D02*
X31884819Y-55809047D01*
X31884819Y-55809047D02*
X31837200Y-55904285D01*
X31837200Y-55904285D02*
X31789580Y-55951904D01*
X31789580Y-55951904D02*
X31694342Y-55999523D01*
X31694342Y-55999523D02*
X31503866Y-56047142D01*
X31503866Y-56047142D02*
X31265771Y-56047142D01*
X31265771Y-56047142D02*
X31075295Y-55999523D01*
X31075295Y-55999523D02*
X30980057Y-55951904D01*
X30980057Y-55951904D02*
X30932438Y-55904285D01*
X30932438Y-55904285D02*
X30884819Y-55809047D01*
X30884819Y-54618571D02*
X30884819Y-54809047D01*
X30884819Y-54809047D02*
X30932438Y-54904285D01*
X30932438Y-54904285D02*
X30980057Y-54951904D01*
X30980057Y-54951904D02*
X31122914Y-55047142D01*
X31122914Y-55047142D02*
X31313390Y-55094761D01*
X31313390Y-55094761D02*
X31694342Y-55094761D01*
X31694342Y-55094761D02*
X31789580Y-55047142D01*
X31789580Y-55047142D02*
X31837200Y-54999523D01*
X31837200Y-54999523D02*
X31884819Y-54904285D01*
X31884819Y-54904285D02*
X31884819Y-54713809D01*
X31884819Y-54713809D02*
X31837200Y-54618571D01*
X31837200Y-54618571D02*
X31789580Y-54570952D01*
X31789580Y-54570952D02*
X31694342Y-54523333D01*
X31694342Y-54523333D02*
X31456247Y-54523333D01*
X31456247Y-54523333D02*
X31361009Y-54570952D01*
X31361009Y-54570952D02*
X31313390Y-54618571D01*
X31313390Y-54618571D02*
X31265771Y-54713809D01*
X31265771Y-54713809D02*
X31265771Y-54904285D01*
X31265771Y-54904285D02*
X31313390Y-54999523D01*
X31313390Y-54999523D02*
X31361009Y-55047142D01*
X31361009Y-55047142D02*
X31456247Y-55094761D01*
X37785714Y-56054819D02*
X37309524Y-56054819D01*
X37309524Y-56054819D02*
X37261905Y-56531009D01*
X37261905Y-56531009D02*
X37309524Y-56483390D01*
X37309524Y-56483390D02*
X37404762Y-56435771D01*
X37404762Y-56435771D02*
X37642857Y-56435771D01*
X37642857Y-56435771D02*
X37738095Y-56483390D01*
X37738095Y-56483390D02*
X37785714Y-56531009D01*
X37785714Y-56531009D02*
X37833333Y-56626247D01*
X37833333Y-56626247D02*
X37833333Y-56864342D01*
X37833333Y-56864342D02*
X37785714Y-56959580D01*
X37785714Y-56959580D02*
X37738095Y-57007200D01*
X37738095Y-57007200D02*
X37642857Y-57054819D01*
X37642857Y-57054819D02*
X37404762Y-57054819D01*
X37404762Y-57054819D02*
X37309524Y-57007200D01*
X37309524Y-57007200D02*
X37261905Y-56959580D01*
X38452381Y-56054819D02*
X38547619Y-56054819D01*
X38547619Y-56054819D02*
X38642857Y-56102438D01*
X38642857Y-56102438D02*
X38690476Y-56150057D01*
X38690476Y-56150057D02*
X38738095Y-56245295D01*
X38738095Y-56245295D02*
X38785714Y-56435771D01*
X38785714Y-56435771D02*
X38785714Y-56673866D01*
X38785714Y-56673866D02*
X38738095Y-56864342D01*
X38738095Y-56864342D02*
X38690476Y-56959580D01*
X38690476Y-56959580D02*
X38642857Y-57007200D01*
X38642857Y-57007200D02*
X38547619Y-57054819D01*
X38547619Y-57054819D02*
X38452381Y-57054819D01*
X38452381Y-57054819D02*
X38357143Y-57007200D01*
X38357143Y-57007200D02*
X38309524Y-56959580D01*
X38309524Y-56959580D02*
X38261905Y-56864342D01*
X38261905Y-56864342D02*
X38214286Y-56673866D01*
X38214286Y-56673866D02*
X38214286Y-56435771D01*
X38214286Y-56435771D02*
X38261905Y-56245295D01*
X38261905Y-56245295D02*
X38309524Y-56150057D01*
X38309524Y-56150057D02*
X38357143Y-56102438D01*
X38357143Y-56102438D02*
X38452381Y-56054819D01*
X39404762Y-56054819D02*
X39500000Y-56054819D01*
X39500000Y-56054819D02*
X39595238Y-56102438D01*
X39595238Y-56102438D02*
X39642857Y-56150057D01*
X39642857Y-56150057D02*
X39690476Y-56245295D01*
X39690476Y-56245295D02*
X39738095Y-56435771D01*
X39738095Y-56435771D02*
X39738095Y-56673866D01*
X39738095Y-56673866D02*
X39690476Y-56864342D01*
X39690476Y-56864342D02*
X39642857Y-56959580D01*
X39642857Y-56959580D02*
X39595238Y-57007200D01*
X39595238Y-57007200D02*
X39500000Y-57054819D01*
X39500000Y-57054819D02*
X39404762Y-57054819D01*
X39404762Y-57054819D02*
X39309524Y-57007200D01*
X39309524Y-57007200D02*
X39261905Y-56959580D01*
X39261905Y-56959580D02*
X39214286Y-56864342D01*
X39214286Y-56864342D02*
X39166667Y-56673866D01*
X39166667Y-56673866D02*
X39166667Y-56435771D01*
X39166667Y-56435771D02*
X39214286Y-56245295D01*
X39214286Y-56245295D02*
X39261905Y-56150057D01*
X39261905Y-56150057D02*
X39309524Y-56102438D01*
X39309524Y-56102438D02*
X39404762Y-56054819D01*
X66094819Y-58951904D02*
X67094819Y-58618571D01*
X67094819Y-58618571D02*
X66094819Y-58285238D01*
X67094819Y-57380476D02*
X66618628Y-57713809D01*
X67094819Y-57951904D02*
X66094819Y-57951904D01*
X66094819Y-57951904D02*
X66094819Y-57570952D01*
X66094819Y-57570952D02*
X66142438Y-57475714D01*
X66142438Y-57475714D02*
X66190057Y-57428095D01*
X66190057Y-57428095D02*
X66285295Y-57380476D01*
X66285295Y-57380476D02*
X66428152Y-57380476D01*
X66428152Y-57380476D02*
X66523390Y-57428095D01*
X66523390Y-57428095D02*
X66571009Y-57475714D01*
X66571009Y-57475714D02*
X66618628Y-57570952D01*
X66618628Y-57570952D02*
X66618628Y-57951904D01*
X67094819Y-56428095D02*
X67094819Y-56999523D01*
X67094819Y-56713809D02*
X66094819Y-56713809D01*
X66094819Y-56713809D02*
X66237676Y-56809047D01*
X66237676Y-56809047D02*
X66332914Y-56904285D01*
X66332914Y-56904285D02*
X66380533Y-56999523D01*
X66094819Y-55809047D02*
X66094819Y-55713809D01*
X66094819Y-55713809D02*
X66142438Y-55618571D01*
X66142438Y-55618571D02*
X66190057Y-55570952D01*
X66190057Y-55570952D02*
X66285295Y-55523333D01*
X66285295Y-55523333D02*
X66475771Y-55475714D01*
X66475771Y-55475714D02*
X66713866Y-55475714D01*
X66713866Y-55475714D02*
X66904342Y-55523333D01*
X66904342Y-55523333D02*
X66999580Y-55570952D01*
X66999580Y-55570952D02*
X67047200Y-55618571D01*
X67047200Y-55618571D02*
X67094819Y-55713809D01*
X67094819Y-55713809D02*
X67094819Y-55809047D01*
X67094819Y-55809047D02*
X67047200Y-55904285D01*
X67047200Y-55904285D02*
X66999580Y-55951904D01*
X66999580Y-55951904D02*
X66904342Y-55999523D01*
X66904342Y-55999523D02*
X66713866Y-56047142D01*
X66713866Y-56047142D02*
X66475771Y-56047142D01*
X66475771Y-56047142D02*
X66285295Y-55999523D01*
X66285295Y-55999523D02*
X66190057Y-55951904D01*
X66190057Y-55951904D02*
X66142438Y-55904285D01*
X66142438Y-55904285D02*
X66094819Y-55809047D01*
X66428152Y-54618571D02*
X67094819Y-54618571D01*
X66047200Y-54856666D02*
X66761485Y-55094761D01*
X66761485Y-55094761D02*
X66761485Y-54475714D01*
X72511905Y-56150057D02*
X72559524Y-56102438D01*
X72559524Y-56102438D02*
X72654762Y-56054819D01*
X72654762Y-56054819D02*
X72892857Y-56054819D01*
X72892857Y-56054819D02*
X72988095Y-56102438D01*
X72988095Y-56102438D02*
X73035714Y-56150057D01*
X73035714Y-56150057D02*
X73083333Y-56245295D01*
X73083333Y-56245295D02*
X73083333Y-56340533D01*
X73083333Y-56340533D02*
X73035714Y-56483390D01*
X73035714Y-56483390D02*
X72464286Y-57054819D01*
X72464286Y-57054819D02*
X73083333Y-57054819D01*
X73702381Y-56054819D02*
X73797619Y-56054819D01*
X73797619Y-56054819D02*
X73892857Y-56102438D01*
X73892857Y-56102438D02*
X73940476Y-56150057D01*
X73940476Y-56150057D02*
X73988095Y-56245295D01*
X73988095Y-56245295D02*
X74035714Y-56435771D01*
X74035714Y-56435771D02*
X74035714Y-56673866D01*
X74035714Y-56673866D02*
X73988095Y-56864342D01*
X73988095Y-56864342D02*
X73940476Y-56959580D01*
X73940476Y-56959580D02*
X73892857Y-57007200D01*
X73892857Y-57007200D02*
X73797619Y-57054819D01*
X73797619Y-57054819D02*
X73702381Y-57054819D01*
X73702381Y-57054819D02*
X73607143Y-57007200D01*
X73607143Y-57007200D02*
X73559524Y-56959580D01*
X73559524Y-56959580D02*
X73511905Y-56864342D01*
X73511905Y-56864342D02*
X73464286Y-56673866D01*
X73464286Y-56673866D02*
X73464286Y-56435771D01*
X73464286Y-56435771D02*
X73511905Y-56245295D01*
X73511905Y-56245295D02*
X73559524Y-56150057D01*
X73559524Y-56150057D02*
X73607143Y-56102438D01*
X73607143Y-56102438D02*
X73702381Y-56054819D01*
X74654762Y-56054819D02*
X74750000Y-56054819D01*
X74750000Y-56054819D02*
X74845238Y-56102438D01*
X74845238Y-56102438D02*
X74892857Y-56150057D01*
X74892857Y-56150057D02*
X74940476Y-56245295D01*
X74940476Y-56245295D02*
X74988095Y-56435771D01*
X74988095Y-56435771D02*
X74988095Y-56673866D01*
X74988095Y-56673866D02*
X74940476Y-56864342D01*
X74940476Y-56864342D02*
X74892857Y-56959580D01*
X74892857Y-56959580D02*
X74845238Y-57007200D01*
X74845238Y-57007200D02*
X74750000Y-57054819D01*
X74750000Y-57054819D02*
X74654762Y-57054819D01*
X74654762Y-57054819D02*
X74559524Y-57007200D01*
X74559524Y-57007200D02*
X74511905Y-56959580D01*
X74511905Y-56959580D02*
X74464286Y-56864342D01*
X74464286Y-56864342D02*
X74416667Y-56673866D01*
X74416667Y-56673866D02*
X74416667Y-56435771D01*
X74416667Y-56435771D02*
X74464286Y-56245295D01*
X74464286Y-56245295D02*
X74511905Y-56150057D01*
X74511905Y-56150057D02*
X74559524Y-56102438D01*
X74559524Y-56102438D02*
X74654762Y-56054819D01*
D12*
%TO.C,VR103*%
X33385610Y-42374881D02*
G75*
G02*
X33326000Y-40094000I5114390J1274881D01*
G01*
X34463379Y-37711526D02*
G75*
G02*
X43613999Y-39826000I4036621J-3388474D01*
G01*
X38592030Y-46369358D02*
G75*
G02*
X34709000Y-44761000I-92030J5269358D01*
G01*
X43539726Y-42640799D02*
G75*
G02*
X38500000Y-46370000I-5039726J1540799D01*
G01*
%TO.C,VR102*%
X51010610Y-42374881D02*
G75*
G02*
X50951000Y-40094000I5114390J1274881D01*
G01*
X52088379Y-37711526D02*
G75*
G02*
X61238999Y-39826000I4036621J-3388474D01*
G01*
X56217030Y-46369358D02*
G75*
G02*
X52334000Y-44761000I-92030J5269358D01*
G01*
X61164726Y-42640799D02*
G75*
G02*
X56125000Y-46370000I-5039726J1540799D01*
G01*
%TO.C,J1*%
X72945000Y-29170000D02*
X72945000Y-30500000D01*
X71615000Y-29170000D02*
X72945000Y-29170000D01*
X70345000Y-29170000D02*
X39805000Y-29170000D01*
X70345000Y-29170000D02*
X70345000Y-31830000D01*
X39805000Y-29170000D02*
X39805000Y-31830000D01*
X70345000Y-31830000D02*
X39805000Y-31830000D01*
%TO.C,VR101*%
X68635610Y-42374881D02*
G75*
G02*
X68576000Y-40094000I5114390J1274881D01*
G01*
X69713379Y-37711526D02*
G75*
G02*
X78863999Y-39826000I4036621J-3388474D01*
G01*
X73842030Y-46369358D02*
G75*
G02*
X69959000Y-44761000I-92030J5269358D01*
G01*
X78789726Y-42640799D02*
G75*
G02*
X73750000Y-46370000I-5039726J1540799D01*
G01*
%TO.C,VR105*%
X51010610Y-57874881D02*
G75*
G02*
X50951000Y-55594000I5114390J1274881D01*
G01*
X52088379Y-53211526D02*
G75*
G02*
X61238999Y-55326000I4036621J-3388474D01*
G01*
X56217030Y-61869358D02*
G75*
G02*
X52334000Y-60261000I-92030J5269358D01*
G01*
X61164726Y-58140799D02*
G75*
G02*
X56125000Y-61870000I-5039726J1540799D01*
G01*
%TO.C,VR106*%
X33385610Y-57874881D02*
G75*
G02*
X33326000Y-55594000I5114390J1274881D01*
G01*
X34463379Y-53211526D02*
G75*
G02*
X43613999Y-55326000I4036621J-3388474D01*
G01*
X38592030Y-61869358D02*
G75*
G02*
X34709000Y-60261000I-92030J5269358D01*
G01*
X43539726Y-58140799D02*
G75*
G02*
X38500000Y-61870000I-5039726J1540799D01*
G01*
%TO.C,VR104*%
X68635610Y-57874881D02*
G75*
G02*
X68576000Y-55594000I5114390J1274881D01*
G01*
X69713379Y-53211526D02*
G75*
G02*
X78863999Y-55326000I4036621J-3388474D01*
G01*
X73842030Y-61869358D02*
G75*
G02*
X69959000Y-60261000I-92030J5269358D01*
G01*
X78789726Y-58140799D02*
G75*
G02*
X73750000Y-61870000I-5039726J1540799D01*
G01*
%TD*%
M02*
